#!OML:ASF H:\ManfredObstacles\Project 1\Capture day 2\Session 1\male.ASF
:FULLY-SPECIFIED
:DEGREES
242
root 1.89393 15.6343 3.24961 -169.876 0.225667 177.039
lowerback -6.07355 0.167933 -5.74436
upperback 1.30019 0.670734 -0.706201
thorax 4.70996 0.166453 2.55682
lowerneck -37.4925 -0.0493739 -0.42414
upperneck 39.6596 -3.30498 2.5221
head 24.0943 -1.44514 0.212346
rclavicle 4.5472e-015 -2.72335e-014
rhumerus -57.4168 -40.1594 -45.1429
rradius 17.5605
rwrist 55.5732
rhand -1.2013 -6.97196
rfingers 7.12502
rthumb 24.4392 -35.433
lclavicle 4.5472e-015 -2.72335e-014
lhumerus -82.0865 54.6505 5.96333
lradius 11.6271
lwrist -106.391
lhand -0.674779 6.29922
lfingers 7.12502
lthumb 24.9439 34.6913
rfemur -15.346 7.4927 20.5598
rtibia 33.2092
rfoot -21.4584 -23.0555
rtoes -6.79093
lfemur -18.9784 -7.92181 -24.6599
ltibia 34.0679
lfoot -8.69149 24.8932
ltoes 0.411423
243
root 1.8981 15.6328 3.23936 -169.81 0.210882 177.031
lowerback -6.06804 0.184845 -5.75326
upperback 1.29556 0.693431 -0.710106
thorax 4.69999 0.177792 2.5599
lowerneck -37.4698 -0.0708373 -0.399
upperneck 39.6091 -3.32026 2.48432
head 24.0378 -1.44821 0.182978
rclavicle -4.62174e-015 7.95139e-015
rhumerus -56.4827 -39.5074 -46.5419
rradius 17.84
rwrist 54.4846
rhand -1.2407 -6.96032
rfingers 7.12502
rthumb 24.4015 -35.4265
lclavicle -4.62174e-015 7.95139e-015
lhumerus -80.2739 54.5441 8.13793
lradius 11.6531
lwrist -105.142
lhand -0.620838 6.2649
lfingers 7.12502
lthumb 24.9956 34.6497
rfemur -15.367 7.49818 20.5677
rtibia 33.2017
rfoot -21.5104 -23.0815
rtoes -6.78143
lfemur -19.0227 -7.91676 -24.647
ltibia 34.0955
lfoot -8.72619 24.9072
ltoes 0.379161
244
root 1.90219 15.6318 3.2296 -169.734 0.198425 177.036
lowerback -6.05913 0.201928 -5.74599
upperback 1.28602 0.714791 -0.715399
thorax 4.68319 0.189259 2.55229
lowerneck -37.4278 -0.10033 -0.415132
upperneck 39.5831 -3.35611 2.49256
head 24.0016 -1.46161 0.180037
rclavicle -2.23633e-016 6.95746e-015
rhumerus -55.5504 -38.8368 -47.9517
rradius 18.1428
rwrist 53.3824
rhand -1.29354 -6.94403
rfingers 7.12502
rthumb 24.3508 -35.417
lclavicle -2.23633e-016 6.95746e-015
lhumerus -78.177 54.365 10.6681
lradius 11.687
lwrist -103.699
lhand -0.584936 6.24395
lfingers 7.12502
lthumb 25.03 34.624
rfemur -15.3996 7.50685 20.5873
rtibia 33.1875
rfoot -21.5474 -23.1063
rtoes -6.77214
lfemur -19.0835 -7.91196 -24.62
ltibia 34.1297
lfoot -8.74723 24.9229
ltoes 0.335378
245
root 1.90629 15.631 3.22027 -169.655 0.185945 177.048
lowerback -6.04312 0.218244 -5.73395
upperback 1.27413 0.734169 -0.717901
thorax 4.66009 0.200116 2.54463
lowerneck -37.4051 -0.134278 -0.448599
upperneck 39.5584 -3.39153 2.51212
head 23.9745 -1.47553 0.186988
rclavicle -5.8393e-015 -8.15017e-015
rhumerus -54.6249 -38.1598 -49.3449
rradius 18.4602
rwrist 52.3069
rhand -1.3565 -6.91749
rfingers 7.12502
rthumb 24.2905 -35.3986
lclavicle -5.8393e-015 -8.15017e-015
lhumerus -75.7504 54.0732 13.6288
lradius 11.7379
lwrist -101.992
lhand -0.561634 6.24756
lfingers 7.12502
lthumb 25.0523 34.6245
rfemur -15.4354 7.51851 20.6152
rtibia 33.1674
rfoot -21.5761 -23.1302
rtoes -6.75358
lfemur -19.1527 -7.90693 -24.5843
ltibia 34.1673
lfoot -8.75642 24.9378
ltoes 0.282005
246
root 1.91044 15.6304 3.21112 -169.579 0.17071 177.061
lowerback -6.01149 0.232464 -5.72492
upperback 1.25571 0.749548 -0.7163
thorax 4.62156 0.209455 2.54233
lowerneck -37.3858 -0.162863 -0.467712
upperneck 39.5171 -3.41229 2.51494
head 23.9318 -1.483 0.18692
rclavicle 1.50082e-014 -1.12313e-014
rhumerus -53.7091 -37.466 -50.7127
rradius 18.7842
rwrist 51.2222
rhand -1.43155 -6.87402
rfingers 7.12502
rthumb 24.2185 -35.3647
lclavicle 1.50082e-014 -1.12313e-014
lhumerus -72.9885 53.6141 17.0424
lradius 11.814
lwrist -99.993
lhand -0.518884 6.2838
lfingers 7.12502
lthumb 25.0933 34.655
rfemur -15.4665 7.53264 20.6458
rtibia 33.1424
rfoot -21.6055 -23.1564
rtoes -6.73223
lfemur -19.2208 -7.9038 -24.5473
ltibia 34.2056
lfoot -8.75983 24.9506
ltoes 0.222468
247
root 1.9146 15.6299 3.20164 -169.511 0.145895 177.065
lowerback -5.9692 0.24274 -5.72617
upperback 1.23468 0.759512 -0.714755
thorax 4.57465 0.216075 2.54506
lowerneck -37.3656 -0.188403 -0.516569
upperneck 39.5203 -3.44105 2.54968
head 23.9321 -1.49702 0.206539
rclavicle 1.01132e-014 3.97569e-015
rhumerus -52.8199 -36.7725 -52.0368
rradius 19.1156
rwrist 50.1597
rhand -1.51441 -6.82517
rfingers 7.12502
rthumb 24.1391 -35.3264
lclavicle 1.01132e-014 3.97569e-015
lhumerus -70.1666 53.0325 20.5619
lradius 11.9064
lwrist -97.9111
lhand -0.493975 6.33715
lfingers 7.12502
lthumb 25.1171 34.705
rfemur -15.4839 7.54098 20.6701
rtibia 33.1148
rfoot -21.6417 -23.189
rtoes -6.70968
lfemur -19.2771 -7.90389 -24.5197
ltibia 34.2409
lfoot -8.77037 24.9572
ltoes 0.168412
248
root 1.91859 15.6293 3.19167 -169.453 0.113829 177.064
lowerback -5.91673 0.250839 -5.7272
upperback 1.2137 0.76585 -0.716064
thorax 4.52239 0.221049 2.54422
lowerneck -37.4016 -0.203771 -0.542994
upperneck 39.541 -3.45987 2.56586
head 23.9658 -1.50531 0.214535
rclavicle -3.13086e-015 2.78299e-015
rhumerus -51.9433 -36.0755 -53.3391
rradius 19.4593
rwrist 49.103
rhand -1.59428 -6.77276
rfingers 7.12502
rthumb 24.0625 -35.2842
lclavicle -3.13086e-015 2.78299e-015
lhumerus -67.2625 52.3051 24.2139
lradius 12.0163
lwrist -95.7011
lhand -0.475308 6.4068
lfingers 7.12502
lthumb 25.135 34.7722
rfemur -15.485 7.54453 20.6904
rtibia 33.0855
rfoot -21.687 -23.2285
rtoes -6.68314
lfemur -19.3192 -7.90785 -24.4994
ltibia 34.2731
lfoot -8.79371 24.9613
ltoes 0.121028
249
root 1.9222 15.6287 3.1809 -169.402 0.0809313 177.057
lowerback -5.86598 0.257939 -5.72579
upperback 1.19648 0.770989 -0.721469
thorax 4.47523 0.22528 2.53765
lowerneck -37.432 -0.199643 -0.536855
upperneck 39.5742 -3.46507 2.5636
head 24.0063 -1.50707 0.209905
rclavicle -6.95746e-015 3.27995e-015
rhumerus -51.076 -35.3849 -54.6172
rradius 19.8132
rwrist 48.0621
rhand -1.66315 -6.73782
rfingers 7.12502
rthumb 23.9964 -35.2579
lclavicle -6.95746e-015 3.27995e-015
lhumerus -64.4204 51.4756 27.8158
lradius 12.1415
lwrist -93.4807
lhand -0.474655 6.48121
lfingers 7.12502
lthumb 25.1357 34.8465
rfemur -15.4737 7.53917 20.7031
rtibia 33.0568
rfoot -21.7416 -23.2704
rtoes -6.66402
lfemur -19.3473 -7.91401 -24.4891
ltibia 34.3021
lfoot -8.82959 24.9669
ltoes 0.0884368
250
root 1.92545 15.6276 3.16944 -169.356 0.0564108 177.05
lowerback -5.82583 0.269164 -5.71936
upperback 1.19 0.78252 -0.730281
thorax 4.44486 0.232151 2.52548
lowerneck -37.449 -0.187218 -0.504022
upperneck 39.5968 -3.46347 2.54351
head 24.0307 -1.50419 0.192564
rclavicle 2.55935e-015 1.68967e-015
rhumerus -50.2017 -34.7158 -55.8735
rradius 20.1714
rwrist 47.0461
rhand -1.71237 -6.73103
rfingers 7.12502
rthumb 23.9492 -35.2574
lclavicle 2.55935e-015 1.68967e-015
lhumerus -61.6349 50.5477 31.368
lradius 12.2808
lwrist -91.2407
lhand -0.487487 6.55078
lfingers 7.12502
lthumb 25.1234 34.9178
rfemur -15.457 7.53579 20.7122
rtibia 33.031
rfoot -21.798 -23.3159
rtoes -6.64915
lfemur -19.3664 -7.91903 -24.4831
ltibia 34.3299
lfoot -8.87959 24.9805
ltoes 0.0754392
251
root 1.92837 15.6261 3.15743 -169.311 0.0403331 177.041
lowerback -5.79616 0.283761 -5.7104
upperback 1.19151 0.79948 -0.742306
thorax 4.4284 0.241244 2.50919
lowerneck -37.4848 -0.168595 -0.451998
upperneck 39.6142 -3.45529 2.51176
head 24.0555 -1.49617 0.167427
rclavicle 4.27387e-015 -1.2921e-015
rhumerus -49.3255 -34.0355 -57.1284
rradius 20.5556
rwrist 46.0609
rhand -1.75474 -6.74422
rfingers 7.12502
rthumb 23.9086 -35.2759
lclavicle 4.27387e-015 -1.2921e-015
lhumerus -58.9302 49.5243 34.8442
lradius 12.4409
lwrist -88.9965
lhand -0.5105 6.60505
lfingers 7.12502
lthumb 25.1013 34.9751
rfemur -15.4417 7.53805 20.7166
rtibia 33.0116
rfoot -21.8569 -23.3645
rtoes -6.63318
lfemur -19.3819 -7.92353 -24.4815
ltibia 34.3562
lfoot -8.92758 25.0012
ltoes 0.0639282
252
root 1.93108 15.6243 3.14528 -169.262 0.0282001 177.025
lowerback -5.76386 0.299041 -5.70503
upperback 1.19186 0.817377 -0.75822
thorax 4.40919 0.250779 2.4909
lowerneck -37.492 -0.157016 -0.413123
upperneck 39.6299 -3.45846 2.49212
head 24.0702 -1.49372 0.147831
rclavicle 7.87684e-015 -2.9122e-014
rhumerus -48.4399 -33.3057 -58.4051
rradius 20.9708
rwrist 45.0296
rhand -1.77266 -6.78758
rfingers 7.12502
rthumb 23.8914 -35.3215
lclavicle 7.87684e-015 -2.9122e-014
lhumerus -56.3459 48.4068 38.1963
lradius 12.6155
lwrist -86.7511
lhand -0.548429 6.6371
lfingers 7.12502
lthumb 25.065 35.0123
rfemur -15.4333 7.54768 20.7115
rtibia 33.001
rfoot -21.9181 -23.4163
rtoes -6.61322
lfemur -19.3982 -7.92977 -24.4885
ltibia 34.381
lfoot -8.97359 25.027
ltoes 0.0540391
253
root 1.93376 15.6222 3.13305 -169.21 0.0163655 177.001
lowerback -5.73541 0.311825 -5.70824
upperback 1.19493 0.832889 -0.775443
thorax 4.39515 0.258676 2.47588
lowerneck -37.5171 -0.139912 -0.366397
upperneck 39.6481 -3.45179 2.4626
head 24.0923 -1.48732 0.124308
rclavicle 1.01877e-015 -1.49089e-014
rhumerus -47.5562 -32.5495 -59.6738
rradius 21.4069
rwrist 44.0361
rhand -1.79963 -6.8279
rfingers 7.12502
rthumb 23.8656 -35.3652
lclavicle 1.01877e-015 -1.49089e-014
lhumerus -53.7988 47.1364 41.5475
lradius 12.8242
lwrist -84.3897
lhand -0.565169 6.66226
lfingers 7.12502
lthumb 25.0489 35.0397
rfemur -15.4334 7.5683 20.6981
rtibia 32.9998
rfoot -21.9812 -23.4736
rtoes -6.58817
lfemur -19.4173 -7.93412 -24.5027
ltibia 34.403
lfoot -9.0187 25.0506
ltoes 0.0472611
254
root 1.93636 15.6199 3.12071 -169.152 0.000843257 176.974
lowerback -5.70477 0.321249 -5.71691
upperback 1.19161 0.843826 -0.791037
thorax 4.37351 0.264474 2.46513
lowerneck -37.5246 -0.13359 -0.338896
upperneck 39.6575 -3.45105 2.43969
head 24.1014 -1.4855 0.106353
rclavicle -1.2424e-016 2.48481e-014
rhumerus -46.6828 -31.7359 -60.9388
rradius 21.8683
rwrist 43.0338
rhand -1.83809 -6.86047
rfingers 7.12502
rthumb 23.8287 -35.4026
lclavicle -1.2424e-016 2.48481e-014
lhumerus -51.32 45.6873 44.8779
lradius 13.0745
lwrist -81.8958
lhand -0.550837 6.67684
lfingers 7.12502
lthumb 25.0627 35.0523
rfemur -15.4413 7.59611 20.6804
rtibia 33.0063
rfoot -22.0509 -23.5349
rtoes -6.56493
lfemur -19.4397 -7.93801 -24.5201
ltibia 34.4226
lfoot -9.06225 25.0708
ltoes 0.0340633
255
root 1.93887 15.6175 3.10817 -169.091 -0.0211963 176.943
lowerback -5.66745 0.324821 -5.72917
upperback 1.18106 0.846367 -0.804098
thorax 4.34116 0.266439 2.45813
lowerneck -37.5036 -0.126628 -0.337211
upperneck 39.6786 -3.44923 2.43791
head 24.1131 -1.48683 0.10492
rclavicle 1.2424e-015 1.75924e-014
rhumerus -45.8283 -30.877 -62.1815
rradius 22.3421
rwrist 42.0695
rhand -1.90177 -6.87134
rfingers 7.12502
rthumb 23.7676 -35.4214
lclavicle 1.2424e-015 1.75924e-014
lhumerus -48.998 44.1274 48.0675
lradius 13.3566
lwrist -79.3476
lhand -0.528124 6.68663
lfingers 7.12502
lthumb 25.0844 35.0591
rfemur -15.4518 7.62624 20.6598
rtibia 33.0161
rfoot -22.1276 -23.6011
rtoes -6.54851
lfemur -19.4637 -7.94321 -24.54
ltibia 34.4412
lfoot -9.10717 25.0866
ltoes 0.020445
256
root 1.94124 15.6151 3.09557 -169.029 -0.0507407 176.912
lowerback -5.62011 0.324459 -5.74067
upperback 1.1618 0.842486 -0.814266
thorax 4.29454 0.265808 2.45298
lowerneck -37.4799 -0.128912 -0.364087
upperneck 39.6974 -3.44911 2.45061
head 24.1235 -1.4916 0.116532
rclavicle 4.72114e-016 2.8128e-014
rhumerus -44.997 -29.961 -63.4121
rradius 22.841
rwrist 41.0982
rhand -1.98312 -6.88001
rfingers 7.12502
rthumb 23.6896 -35.4402
lclavicle 4.72114e-016 2.8128e-014
lhumerus -46.7899 42.3889 51.1939
lradius 13.6922
lwrist -76.6985
lhand -0.481526 6.70424
lfingers 7.12502
lthumb 25.1291 35.0705
rfemur -15.4611 7.65645 20.6402
rtibia 33.0248
rfoot -22.2122 -23.6753
rtoes -6.54945
lfemur -19.4902 -7.95024 -24.5591
ltibia 34.4615
lfoot -9.15467 25.0989
ltoes 0.0011895
